<?xml version="1.0" standalone="no"?>
<!DOCTYPE svg PUBLIC "-//W3C//DTD SVG 20010904//EN"
 "http://www.w3.org/TR/2001/REC-SVG-20010904/DTD/svg10.dtd">
<svg version="1.0" xmlns="http://www.w3.org/2000/svg"
 width="225.000000pt" height="225.000000pt" viewBox="0 0 225.000000 225.000000"
 preserveAspectRatio="xMidYMid meet">

<g transform="translate(0.000000,225.000000) scale(0.100000,-0.100000)"
fill="#000000" stroke="none">
<path d="M314 1775 c-15 -23 -15 -27 0 -50 16 -24 20 -25 125 -25 85 0 111 -3
121 -15 7 -8 62 -221 121 -472 108 -450 109 -456 89 -470 -28 -20 -60 -86 -60
-125 0 -57 39 -120 90 -146 55 -27 99 -28 150 -2 61 31 85 73 85 148 l0 63
181 -2 181 -1 -1 -58 c-1 -71 29 -121 92 -151 110 -54 232 23 232 146 0 69
-14 87 -73 87 -25 0 -51 -3 -57 -7 -5 -3 -13 1 -16 10 -5 12 -9 13 -20 4 -11
-9 -14 -8 -14 5 0 18 4 19 45 7 17 -4 39 -5 50 -1 11 4 28 3 37 -1 36 -19 7
18 -31 39 -44 25 -83 29 -75 9 7 -20 -93 -17 -107 3 -10 13 -10 13 -6 -1 4
-12 -3 -16 -34 -15 -25 0 -39 5 -39 13 0 10 -54 13 -236 15 l-237 3 -18 25
c-10 14 -19 36 -21 50 l-3 25 401 3 c305 2 404 5 412 15 11 14 152 598 152
632 0 12 -6 28 -13 34 -10 8 -179 12 -567 13 l-554 3 -16 65 c-33 130 -64 150
-234 150 -112 0 -116 -1 -132 -25z m676 -327 c0 -18 3 -63 7 -100 l6 -68 -116
0 -116 0 -11 43 c-6 23 -16 60 -21 82 -6 22 -12 48 -15 58 -5 16 6 17 130 17
l136 0 0 -32z m355 -60 c-4 -51 -9 -96 -12 -100 -2 -5 -53 -8 -113 -8 -60 0
-111 3 -113 8 -3 4 -8 49 -12 100 l-8 92 133 0 133 0 -8 -92z m375 90 c-1 -2
-11 -46 -24 -98 l-23 -95 -118 -3 -118 -3 6 68 c4 37 7 83 7 101 l0 32 135 0
c74 0 135 -1 135 -2z m-706 -344 c3 -26 6 -69 6 -96 l0 -49 -92 3 -92 3 -21
93 -22 92 107 0 107 0 7 -46z m310 -36 c-3 -46 -7 -89 -10 -95 -5 -18 -183
-18 -188 0 -3 6 -7 49 -10 95 l-6 82 110 0 110 0 -6 -82z m301 -10 l-21 -93
-92 -3 -92 -3 0 43 c0 24 3 67 6 96 l7 52 107 0 107 0 -22 -92z m-115 -374 c0
-14 -69 -24 -76 -12 -3 4 -13 4 -23 -2 -19 -10 -31 -4 -31 15 0 7 23 11 65 10
42 0 65 -4 65 -11z m-590 -54 c11 -11 20 -31 20 -45 0 -31 -33 -65 -62 -65
-29 0 -68 38 -68 67 0 30 34 63 65 63 14 0 34 -9 45 -20z m678 4 c30 -21 30
-77 0 -98 -33 -23 -64 -19 -87 10 -27 34 -26 50 4 79 28 29 51 31 83 9z"/>
<path d="M1518 773 c7 -3 16 -2 19 1 4 3 -2 6 -13 5 -11 0 -14 -3 -6 -6z"/>
</g>
</svg>
