<?xml version="1.0" standalone="no"?>
<!DOCTYPE svg PUBLIC "-//W3C//DTD SVG 20010904//EN"
 "http://www.w3.org/TR/2001/REC-SVG-20010904/DTD/svg10.dtd">
<svg version="1.0" xmlns="http://www.w3.org/2000/svg"
 width="490.000000pt" height="490.000000pt" viewBox="0 0 490.000000 490.000000"
 preserveAspectRatio="xMidYMid meet">

<g transform="translate(0.000000,490.000000) scale(0.100000,-0.100000)"
fill="#000000" stroke="none">
<path d="M2221 4339 c-613 -69 -1158 -421 -1467 -946 -105 -178 -186 -387
-230 -598 -35 -164 -44 -473 -20 -648 40 -280 140 -551 292 -785 487 -751
1415 -1072 2258 -782 708 244 1212 876 1295 1622 65 582 -139 1158 -558 1579
-283 284 -640 469 -1040 540 -135 23 -401 33 -530 18z m566 -458 c44 -21 95
-81 112 -134 11 -32 18 -96 20 -169 l1 -38 296 0 c281 0 298 -1 330 -20 43
-27 74 -92 74 -158 l0 -52 -1195 0 -1195 0 0 48 c0 55 26 117 64 152 l28 25
304 3 304 3 0 83 c0 46 5 98 12 117 20 59 65 115 110 138 41 20 57 21 368 21
298 0 329 -2 367 -19z m833 -657 c15 -39 12 -112 -6 -150 -26 -54 -68 -74
-157 -74 l-75 0 -6 -47 c-4 -27 -33 -336 -66 -688 -113 -1209 -117 -1239 -133
-1272 -19 -36 -70 -81 -100 -88 -12 -3 -327 -4 -699 -3 -670 3 -677 3 -705 24
-66 49 -59 5 -164 1078 -54 545 -98 992 -98 994 -1 1 -20 2 -43 2 -54 0 -100
27 -121 73 -19 39 -23 128 -7 158 10 19 34 19 1191 19 l1179 0 10 -26z"/>
<path d="M2087 3739 c-28 -17 -47 -72 -47 -139 l0 -60 380 0 380 0 0 65 c0 71
-17 117 -49 135 -27 14 -640 13 -664 -1z"/>
<path d="M1545 2943 c3 -32 8 -77 11 -100 l5 -43 125 0 124 0 0 54 c0 29 -3
74 -6 100 l-7 46 -129 0 -129 0 6 -57z"/>
<path d="M1905 2943 c3 -32 8 -77 11 -100 l5 -42 205 -3 204 -3 0 103 0 102
-215 0 -215 0 5 -57z"/>
<path d="M2438 2903 c-2 -54 -2 -101 0 -105 2 -5 102 -8 223 -8 l219 0 0 38
c0 20 3 67 7 105 l6 67 -226 0 -226 0 -3 -97z"/>
<path d="M2997 2993 c-3 -5 -8 -52 -12 -105 l-7 -98 125 0 125 0 6 28 c2 15 8
62 11 105 l7 77 -126 0 c-68 0 -127 -3 -129 -7z"/>
<path d="M1573 2654 c4 -27 9 -83 13 -125 l7 -77 51 -6 c28 -3 84 -6 124 -6
l74 0 -7 108 c-9 144 -8 142 -58 142 -23 0 -80 3 -126 7 l-84 6 6 -49z"/>
<path d="M1935 2573 c4 -65 10 -121 14 -125 3 -4 89 -8 191 -9 l185 -2 3 127
3 126 -202 0 -201 0 7 -117z"/>
<path d="M2430 2560 l0 -130 208 0 209 0 9 123 c6 67 9 125 7 130 -3 4 -101 7
-219 7 l-214 0 0 -130z"/>
<path d="M2966 2646 c-3 -22 -8 -83 -12 -133 l-7 -93 125 0 125 0 12 126 c7
69 11 127 9 129 -2 1 -58 5 -125 8 l-121 5 -6 -42z"/>
<path d="M1610 2303 c0 -21 7 -99 15 -173 8 -74 15 -141 15 -147 0 -10 31 -13
121 -13 l121 0 -6 48 c-3 26 -8 88 -11 137 -3 50 -8 111 -11 138 l-6 47 -119
0 -119 0 0 -37z"/>
<path d="M1957 2332 c-4 -7 22 -354 26 -358 1 -2 77 -6 170 -10 l167 -7 0 187
0 186 -162 1 c-90 0 -171 2 -180 4 -10 2 -19 0 -21 -3z"/>
<path d="M2427 2249 c-4 -46 -7 -130 -7 -185 l0 -102 188 -4 c103 -3 190 -2
193 1 5 5 39 351 35 357 -1 1 -91 5 -202 9 l-201 7 -6 -83z"/>
<path d="M2936 2278 c-7 -54 -26 -279 -26 -307 0 -20 5 -21 120 -21 66 0 120
1 121 3 5 12 35 354 32 360 -2 4 -58 7 -123 7 l-119 0 -5 -42z"/>
<path d="M1653 1834 c3 -21 11 -98 18 -170 l12 -131 111 -6 c61 -3 113 -3 115
-2 3 4 -19 328 -24 333 -1 1 -55 5 -120 9 l-118 6 6 -39z"/>
<path d="M1995 1783 c4 -43 10 -118 13 -168 l7 -90 146 -3 146 -3 6 162 c4 89
4 166 1 170 -3 5 -77 9 -165 9 l-160 0 6 -77z"/>
<path d="M2420 1764 c0 -50 -3 -125 -6 -167 l-7 -77 180 0 181 0 6 53 c3 28 8
88 11 132 3 44 8 94 11 112 l5 32 -191 3 -190 3 0 -91z"/>
<path d="M2900 1839 c-1 -8 -7 -81 -14 -164 -8 -82 -13 -151 -12 -151 0 -1 53
-4 117 -7 l117 -5 6 41 c10 78 28 279 24 282 -2 2 -56 7 -121 11 -97 6 -117 5
-117 -7z"/>
<path d="M1706 1299 c7 -67 15 -123 18 -126 3 -3 53 -2 111 2 l106 7 -6 67
c-3 36 -8 90 -11 119 l-5 52 -113 0 -112 0 12 -121z"/>
<path d="M2029 1413 c-2 -14 1 -76 7 -155 l6 -78 134 0 134 0 0 120 0 120
-140 0 c-77 0 -140 -3 -141 -7z"/>
<path d="M2415 1412 c-3 -3 -5 -56 -5 -119 l0 -113 165 0 164 0 5 33 c3 17 8
69 11 115 l6 82 -148 1 c-81 1 -158 3 -170 4 -12 1 -25 0 -28 -3z"/>
<path d="M2857 1328 c-4 -46 -7 -98 -7 -116 l0 -33 114 2 114 1 6 52 c3 28 9
79 12 114 l7 62 -120 0 -120 0 -6 -82z"/>
<path d="M2407 1053 l-4 -23 163 0 164 0 0 26 0 25 -159 -2 c-158 -3 -159 -3
-164 -26z"/>
<path d="M2836 1064 c-12 -31 -4 -34 102 -34 107 0 132 7 132 37 0 10 -27 13
-114 13 -95 0 -115 -3 -120 -16z"/>
<path d="M1720 1066 c0 -3 7 -12 16 -20 12 -12 38 -16 115 -16 92 0 99 1 99
20 0 19 -7 20 -115 20 -63 0 -115 -2 -115 -4z"/>
<path d="M2050 1050 c0 -19 7 -20 125 -20 118 0 125 1 125 20 0 19 -7 20 -125
20 -118 0 -125 -1 -125 -20z"/>
</g>
</svg>
